<?xml version="1.0" encoding="UTF-8"?> <svg xmlns="http://www.w3.org/2000/svg" width="592.305" height="116.003" viewBox="0 0 592.305 116.003"><g id="Сгруппировать_13" data-name="Сгруппировать 13" transform="translate(-774.25 -808.604)" opacity="0.04"><path id="Контур_24" data-name="Контур 24" d="M789.742,860.058h.314l49.45-48.647h21.438l-53.832,50.518L864.23,921.8H842.009l-51.953-57.066h-.314V921.8H774.25V811.411h15.492Z" fill="#293954"></path><path id="Контур_25" data-name="Контур 25" d="M994.115,866.45a60.284,60.284,0,0,1-4.46,23.466,54.455,54.455,0,0,1-30.906,30.4,66.177,66.177,0,0,1-46.868,0,55.294,55.294,0,0,1-18.544-12.006,54.574,54.574,0,0,1-12.206-18.4,65.438,65.438,0,0,1,0-47.087,52.973,52.973,0,0,1,12.206-18.243,55.6,55.6,0,0,1,18.544-11.772,67.325,67.325,0,0,1,46.868,0,55.464,55.464,0,0,1,18.622,11.772,53.956,53.956,0,0,1,12.284,18.243A60.71,60.71,0,0,1,994.115,866.45Zm-16.744,0a48.812,48.812,0,0,0-2.974-17.073,43.327,43.327,0,0,0-8.45-14.11,39.508,39.508,0,0,0-13.223-9.589,44.76,44.76,0,0,0-34.741,0,38.662,38.662,0,0,0-13.144,9.589,44.008,44.008,0,0,0-8.372,14.11,48.744,48.744,0,0,0-2.974,17.073,49.812,49.812,0,0,0,2.974,17.307,42.183,42.183,0,0,0,8.45,14.11,39.225,39.225,0,0,0,13.145,9.434,41.694,41.694,0,0,0,17.213,3.429,42.815,42.815,0,0,0,17.371-3.429,38.882,38.882,0,0,0,13.3-9.434,42.248,42.248,0,0,0,8.45-14.11A49.882,49.882,0,0,0,977.371,866.45Z" fill="#293954"></path><path id="Контур_26" data-name="Контур 26" d="M1026.353,921.8h-17.214l48.042-110.39h14.084l47.572,110.39h-17.526l-11.268-27.13h-52.58Zm16.587-40.7h41.469l-20.656-51.764Z" fill="#293954"></path><path id="Контур_27" data-name="Контур 27" d="M1220.555,899.66h.312V811.411h15.492V921.8H1216.8l-58.527-90.12h-.313V921.8h-15.492V811.411h20.186Z" fill="#293954"></path><path id="Контур_28" data-name="Контур 28" d="M1350.75,899.66h.313V811.411h15.492V921.8h-19.561l-58.526-90.12h-.314V921.8h-15.492V811.411h20.187Z" fill="#293954"></path></g></svg> 