<?xml version="1.0" encoding="UTF-8"?> <svg xmlns="http://www.w3.org/2000/svg" width="13.026" height="8.107" viewBox="0 0 13.026 8.107"><g id="Сгруппировать_106" data-name="Сгруппировать 106" transform="translate(-2736.046 -2225.542)"><path id="Контур_83" data-name="Контур 83" d="M2743.724,2230.542a1.846,1.846,0,0,1-2.33,0l-4.934-4.029a.254.254,0,0,0-.414.2v6.685a.254.254,0,0,0,.254.254h12.518a.254.254,0,0,0,.254-.254v-6.685a.254.254,0,0,0-.415-.2Z" fill="#fff"></path><path id="Контур_84" data-name="Контур 84" d="M2743.264,2229.652l4.481-3.659a.254.254,0,0,0-.16-.451h-10.052a.254.254,0,0,0-.16.451l4.48,3.659A1.116,1.116,0,0,0,2743.264,2229.652Z" fill="#fff"></path><path id="Контур_85" data-name="Контур 85" d="M2736.046,2225.542h0Z" fill="#fff"></path></g></svg> 